<svg xmlns="http://www.w3.org/2000/svg" viewBox="0 0 256 256">
  <defs>
    <linearGradient id="g" x1="0" y1="0" x2="1" y2="1">
      <stop offset="0%" stop-color="#22c55e"/>
      <stop offset="100%" stop-color="#0ea5e9"/>
    </linearGradient>
  </defs>
  <rect width="256" height="256" rx="56" fill="#0f172a"/>
  <path d="M64 168c12-52 58-88 112-88 8 0 16 1 24 3-18 6-34 18-45 34 8-2 17-3 25-3 7 0 14 1 20 2-11 18-30 31-52 33 2 8 3 16 3 24 0 13-2 26-7 38H64z" fill="url(#g)"/>
  <circle cx="160" cy="96" r="10" fill="#e2e8f0"/>
  <text x="48" y="208" font-family="Roboto,Arial,sans-serif" font-size="40" fill="#e2e8f0" font-weight="700">DR</text>
</svg>
